<?xml version="1.0" encoding="utf-8"?>
<svg width="512px" height="512px" viewBox="0 0 1024 1024" class="icon" version="1.1" xmlns="http://www.w3.org/2000/svg">
    <path d="M439.734008 219.016628c93.317599-93.317599 244.658987-93.317599 338.008554 0l28.132746 28.164715c93.349568 93.349568 93.349568 244.658987 0 338.008554l-4.827323 4.827324-106.265056-15.82467-15.792701-106.265056-106.265056-15.792701-15.7927-106.265055-106.233087-15.760732-15.792701-106.265056 4.827324-4.827323z" fill="#FF4893" />
    <path d="M801.047985 590.017221l-252.555337 252.555337-146.482096-146.482096-79.602884-79.570915-140.08829-140.08829 252.587306-252.587306 15.792701 106.265056 106.233087 15.760732 15.7927 106.265055 106.265056 15.792701 15.792701 106.265056z" fill="#5FCEFF" />
    <path d="M402.010552 696.090462l-3.93219 3.932191-155.625238 155.593269c-21.962724 21.994693-57.608192 21.994693-79.570916 0-10.997346-10.965377-16.46405-25.38341-16.464051-39.801442 0-14.386064 5.466704-28.772127 16.464051-39.769474l155.593269-155.593269 3.932191-3.93219 79.602884 79.570915z" fill="#FFB578" />
    <path d="M548.492648 864.954076a22.323974 22.323974 0 0 1-15.82467-6.553651L166.494708 492.255927a22.378321 22.378321 0 0 1 31.646143-31.646143L564.317318 826.751085a22.384715 22.384715 0 0 1-15.82467 38.202991z" fill="#4F46A3" /><path d="M202.667666 894.490263c-21.019637 0-40.770104-8.190465-55.619719-23.065656-14.824039-14.776086-23.008111-34.53934-23.008111-55.610127 0-21.00685 8.174481-40.750923 23.020899-55.59734l155.593269-155.593269a22.378321 22.378321 0 0 1 31.646143 31.649339l-155.593269 155.593269a33.637813 33.637813 0 0 0-9.9104 23.944804c0 9.088795 3.510199 17.595754 9.884824 23.951197 6.432169 6.44176 14.935931 9.964747 23.986364 9.964747s17.554194-3.526184 23.948-9.926384l155.641223-155.609254a22.378321 22.378321 0 0 1 31.642946 31.64934l-155.625239 155.593269c-14.836827 14.865599-34.587294 23.056064-55.60693 23.056065z" fill="#4F46A3" />
    <path d="M548.492648 864.954076a22.384715 22.384715 0 0 1-15.82467-38.202991l257.379464-257.379464c40.926752-40.926752 63.464918-95.325254 63.464918-153.186001s-22.538166-112.259249-63.458525-153.179607l-28.145534-28.174306c-84.468571-84.439799-221.900234-84.436602-306.35282 0.00959l-257.41463 257.41463a22.378321 22.378321 0 0 1-31.646143-31.646143l257.41463-257.414629c101.901283-101.894889 267.724642-101.898086 369.654697-0.003197l28.142337 28.177503c49.366576 49.363379 76.559433 115.005389 76.559433 184.819356s-27.192857 135.455977-76.569024 184.828947l-257.379463 257.385857a22.333564 22.333564 0 0 1-15.82467 6.550455z" fill="#4F46A3" />
    <path d="M801.076757 612.401936a22.602104 22.602104 0 0 1-3.324779-0.246162l-106.265056-15.82467a22.384715 22.384715 0 0 1-18.839349-18.845743l-13.356661-89.858549-89.855353-13.353464a22.378321 22.378321 0 0 1-18.845743-18.845743l-13.356661-89.855353-89.820186-13.324692a22.378321 22.378321 0 0 1-18.84894-18.84894l-15.792701-106.265056a22.378321 22.378321 0 0 1 44.270713-6.579226l13.353463 89.852156 89.820187 13.324691a22.378321 22.378321 0 0 1 18.84894 18.845744l13.356661 89.858549 89.855353 13.353464a22.378321 22.378321 0 0 1 18.845743 18.845743l13.35666 89.864943 89.864944 13.382236a22.381518 22.381518 0 0 1-3.267235 44.520072z" fill="#4F46A3" />
</svg>